<svg xmlns="http://www.w3.org/2000/svg" viewBox="0 0 100 100" width="100" height="100">
  <defs>
    <linearGradient id="bg" x1="0%" y1="0%" x2="100%" y2="100%">
      <stop offset="0%" style="stop-color:#667eea"/>
      <stop offset="100%" style="stop-color:#764ba2"/>
    </linearGradient>
  </defs>
  <rect width="100" height="100" rx="20" fill="url(#bg)"/>
  <!-- Film strip - left -->
  <rect x="18" y="22" width="8" height="46" rx="2" fill="#fff" opacity="0.9"/>
  <!-- Film strip - right -->
  <rect x="60" y="22" width="8" height="46" rx="2" fill="#fff" opacity="0.9"/>
  <!-- Film holes left -->
  <rect x="20" y="26" width="4" height="3" rx="1" fill="#667eea" opacity="0.4"/>
  <rect x="20" y="33" width="4" height="3" rx="1" fill="#667eea" opacity="0.4"/>
  <rect x="20" y="40" width="4" height="3" rx="1" fill="#667eea" opacity="0.4"/>
  <rect x="20" y="47" width="4" height="3" rx="1" fill="#667eea" opacity="0.4"/>
  <rect x="20" y="54" width="4" height="3" rx="1" fill="#667eea" opacity="0.4"/>
  <rect x="20" y="61" width="4" height="3" rx="1" fill="#667eea" opacity="0.4"/>
  <!-- Film holes right -->
  <rect x="62" y="26" width="4" height="3" rx="1" fill="#667eea" opacity="0.4"/>
  <rect x="62" y="33" width="4" height="3" rx="1" fill="#667eea" opacity="0.4"/>
  <rect x="62" y="40" width="4" height="3" rx="1" fill="#667eea" opacity="0.4"/>
  <rect x="62" y="47" width="4" height="3" rx="1" fill="#667eea" opacity="0.4"/>
  <rect x="62" y="54" width="4" height="3" rx="1" fill="#667eea" opacity="0.4"/>
  <rect x="62" y="61" width="4" height="3" rx="1" fill="#667eea" opacity="0.4"/>
  <!-- Image/picture frame -->
  <rect x="30" y="24" width="26" height="22" rx="2" fill="#fff" opacity="0.95"/>
  <circle cx="40" cy="32" r="3" fill="#667eea" opacity="0.5"/>
  <polygon points="32,43 40,33 45,40 48,34 55,44" fill="#667eea" opacity="0.35"/>
  <!-- Download arrow into cache box -->
  <rect x="34" y="52" width="18" height="14" rx="3" fill="#fff" opacity="0.9"/>
  <line x1="43" y1="56" x2="43" y2="62" stroke="#667eea" stroke-width="2" stroke-linecap="round"/>
  <polyline points="40,60 43,63 46,60" fill="none" stroke="#667eea" stroke-width="2" stroke-linecap="round" stroke-linejoin="round"/>
  <!-- TMDB star badge -->
  <circle cx="76" cy="30" r="10" fill="#ffd700" opacity="0.95"/>
  <text x="76" y="35" font-family="Arial" font-size="16" fill="#fff" text-anchor="middle" font-weight="bold">★</text>
</svg>